<svg id="Layer_1" data-name="Layer 1" xmlns="http://www.w3.org/2000/svg" viewBox="0 0 63.51 99.26"><defs><style>.cls-1{fill:#fbfbff;}.cls-2,.cls-3{fill:none;stroke:#8acea0;stroke-miterlimit:10;}.cls-3{stroke-width:0.25px;}.cls-4{fill:#26a450;}</style></defs><title>logo.v1</title><path class="cls-1" d="M46.6,50.41" transform="translate(-21.15 -0.38)"/><path class="cls-2" d="M46.6,50.41" transform="translate(-21.15 -0.38)"/><path class="cls-1" d="M24.41,75.81" transform="translate(-21.15 -0.38)"/><path class="cls-2" d="M24.41,75.81" transform="translate(-21.15 -0.38)"/><path class="cls-1" d="M84.26,49.63" transform="translate(-21.15 -0.38)"/><path class="cls-2" d="M84.26,49.63" transform="translate(-21.15 -0.38)"/><path class="cls-1" d="M31.61,79.69" transform="translate(-21.15 -0.38)"/><path class="cls-3" d="M31.61,79.69" transform="translate(-21.15 -0.38)"/><path class="cls-1" d="M57.82,94.33" transform="translate(-21.15 -0.38)"/><path class="cls-2" d="M57.82,94.33" transform="translate(-21.15 -0.38)"/><path class="cls-1" d="M66.9,51.19" transform="translate(-21.15 -0.38)"/><path class="cls-2" d="M66.9,51.19" transform="translate(-21.15 -0.38)"/><path class="cls-1" d="M69,84.36" transform="translate(-21.15 -0.38)"/><path class="cls-2" d="M69,84.36" transform="translate(-21.15 -0.38)"/><path class="cls-1" d="M31.49,82.8" transform="translate(-21.15 -0.38)"/><path class="cls-3" d="M31.49,82.8" transform="translate(-21.15 -0.38)"/><path class="cls-1" d="M37.36,91.81a7.4,7.4,0,0,1-1.86,2.76,5.93,5.93,0,0,1-2.78,1c-2.18.37-4.5.56-6.52-.41-2.83-1.34-4.51-4.74-4.79-8.11A23.54,23.54,0,0,1,23.2,77.2,22.09,22.09,0,0,1,25.74,72c1-1.49,2.36-2.71,3.44-4.17a51.61,51.61,0,0,1,3.22-4.59c.67-.72,1.44-1.32,2.17-2a44.17,44.17,0,0,0,6.22-7.59A15.54,15.54,0,0,0,43.29,49" transform="translate(-21.15 -0.38)"/><path class="cls-4" d="M37.36,91.18c-.92,1.92-1.92,3.22-4.09,3.67a12.34,12.34,0,0,1-6.3,0c-3.73-1.23-5.78-5.77-5.56-9.48a25.75,25.75,0,0,1,1.64-7.13,21.83,21.83,0,0,1,3.09-6.18c1.41-1.84,3-3.46,4.24-5.42a22.43,22.43,0,0,1,4.19-4.77,36.09,36.09,0,0,0,4.92-5.76c1.45-2,3.07-4.06,3.8-6.47.12-.38-.11-.87,0-1.25a21.76,21.76,0,0,1-3.54,6.11,38.67,38.67,0,0,1-4.86,5.82c-.82.77-1.73,1.45-2.49,2.28a22.06,22.06,0,0,0-2.25,3.16c-1.38,2.13-3.27,3.84-4.66,6a27.07,27.07,0,0,0-3,7,23.2,23.2,0,0,0-1.11,6.5c0,3.43.55,7.09,3.26,9.5,2,1.75,4.56,2,7.07,1.62a8.46,8.46,0,0,0,3.5-1,6.75,6.75,0,0,0,2.17-3c.17-.34-.16-.91,0-1.25Z" transform="translate(-21.15 -0.38)"/><path class="cls-1" d="M23,25.61c.88,0,1.22,1.25,1.76,2a3.13,3.13,0,0,0,2.46,1.23,8,8,0,0,0,2.73-.51c1.7-.52,3.38-1.11,5-1.75,1.13-.44,2.43-1.13,2.61-2.44a4,4,0,0,0-1.18-2.82" transform="translate(-21.15 -0.38)"/><path class="cls-4" d="M23,26.24c.8.1,1.12.93,1.47,1.55a3.13,3.13,0,0,0,2,1.59,6.12,6.12,0,0,0,3.22-.32c1.16-.35,2.31-.74,3.46-1.15,1.48-.53,4-1.11,4.41-2.92a6.66,6.66,0,0,0,.06-1.67,4.6,4.6,0,0,0-1.2-2.6c.19.25-.21,1,0,1.25a4.45,4.45,0,0,1,1.19,2.56V23.3c-.11,1.42-1.32,2.15-2.53,2.64-1.68.67-3.4,1.25-5.13,1.79-1.47.45-3.2.89-4.57-.1C24.43,27,24.18,25.14,23,25c0,0-.06,1.24,0,1.25Z" transform="translate(-21.15 -0.38)"/><path class="cls-1" d="M32.25,17.71a3,3,0,0,1,1.85-1.34" transform="translate(-21.15 -0.38)"/><path class="cls-4" d="M32.25,18.34A3,3,0,0,1,34.1,17V15.93a1.07,1.07,0,0,1,0-.18,3,3,0,0,0-1.85,1.34,1.08,1.08,0,0,0,0,.18v.88s0,.16,0,.19Z" transform="translate(-21.15 -0.38)"/><path class="cls-1" d="M23.62,20.19a19.74,19.74,0,0,0,5.73-3.78c.45-.42.91-1.12.57-1.64-.15-.24-.41-.34-.59-.55-.58-.66,0-1.76.71-2.3a13.11,13.11,0,0,1,3.51-1.8q2.27-.87,4.55-1.7" transform="translate(-21.15 -0.38)"/><path class="cls-4" d="M23.62,20.82A18.91,18.91,0,0,0,29.35,17,2.45,2.45,0,0,0,30,15a1.56,1.56,0,0,0-.12-.83c-.29-.48-.77-.52-.82-1.17V14.2c.13-1.65,2.11-2.49,3.42-3,1.83-.77,3.71-1.44,5.58-2.11.14-.06-.12-1.21,0-1.25-1.43.51-2.86,1-4.28,1.59a14.07,14.07,0,0,0-3.68,1.83,2.62,2.62,0,0,0-1.05,2.27,3.93,3.93,0,0,0,0,1c.16.57.81.7.91,1.3V14.54a2.69,2.69,0,0,1-1.15,1.67,20.6,20.6,0,0,1-1.65,1.31,20.54,20.54,0,0,1-3.62,2.05c-.16.07.14,1.18,0,1.25Z" transform="translate(-21.15 -0.38)"/><path class="cls-1" d="M35.83,6.85a12.2,12.2,0,0,1,4.63-4.4" transform="translate(-21.15 -0.38)"/><path class="cls-4" d="M35.83,7.48a12.23,12.23,0,0,1,4.63-4.4,2.65,2.65,0,0,0,0-.63V2a1.07,1.07,0,0,1,0-.18,12.23,12.23,0,0,0-4.63,4.4s0,.17,0,.18v.88s0,.16,0,.19Z" transform="translate(-21.15 -0.38)"/><path class="cls-1" d="M39.5,8.3a8.7,8.7,0,0,1,2.41-4.11,18.44,18.44,0,0,1,3.75-2.73A2.56,2.56,0,0,1,47,1" transform="translate(-21.15 -0.38)"/><path class="cls-4" d="M39.5,8.92a9,9,0,0,1,2.7-4.38,15.92,15.92,0,0,1,2.22-1.7l1.24-.76A2.64,2.64,0,0,1,47,1.63S47,.38,47,.38a2.64,2.64,0,0,0-1.29.45l-1.18.73A15.91,15.91,0,0,0,42.2,3.29a9,9,0,0,0-2.7,4.38c-.1.4.09.86,0,1.25Z" transform="translate(-21.15 -0.38)"/><path class="cls-1" d="M44.35,9c-.49.05-.91-.45-1-1a3,3,0,0,1,.25-1.57,15.07,15.07,0,0,1,1.23-2.56" transform="translate(-21.15 -0.38)"/><path class="cls-4" d="M44.35,8.37a.93.93,0,0,1-.86-.56,1.09,1.09,0,0,1-.11-.27l0-.14,0-.09v.78c.07-.27.1-.53.19-.79a13.58,13.58,0,0,1,1.31-2.78,1.07,1.07,0,0,0,0-.18V3.45s0-.15,0-.18A15.66,15.66,0,0,0,44,4.94a7.17,7.17,0,0,0-.61,1.85,9,9,0,0,0,0,1,3.64,3.64,0,0,0,.06.93,1,1,0,0,0,1,.86s0-1.24,0-1.25Z" transform="translate(-21.15 -0.38)"/><path class="cls-1" d="M21.16,21.64l1.17.63a1.39,1.39,0,0,0,1.07.24c.35-.13.54-.74.22-1a.76.76,0,0,0-.33-.08l-1.76-.11A3.88,3.88,0,0,0,23,22.79" transform="translate(-21.15 -0.38)"/><path class="cls-4" d="M21.16,22.26l1.25.67c.32.17.8.39,1.13.12a.72.72,0,0,0,.22-.35,1.08,1.08,0,0,0,0-.19c0-.33,0-.66,0-1A.85.85,0,0,0,23.7,21a.66.66,0,0,0-.51-.16l-1.66-.11s0,.58,0,.63v.44a.53.53,0,0,0,0,.18A3.91,3.91,0,0,0,23,23.42a1.19,1.19,0,0,1,0-.19v-.88a1.07,1.07,0,0,0,0-.18,3.91,3.91,0,0,1-1.48-1.43V22l1.44.1a1.56,1.56,0,0,1,.61.08.33.33,0,0,1,.14.12.46.46,0,0,1,.06.16V21.3a.67.67,0,0,1-.23.49.75.75,0,0,1-.71.08,4.15,4.15,0,0,1-.82-.4L21.16,21s0,.21,0,.18v.89s0,.17,0,.18Z" transform="translate(-21.15 -0.38)"/><path class="cls-1" d="M44.4,10.77c0,.3.05.59.08.88.26,2.48.54,5.06,1.74,7.19A16.5,16.5,0,0,0,48.3,21.6" transform="translate(-21.15 -0.38)"/><path class="cls-4" d="M44.4,11.4a29,29,0,0,0,.88,5.78,13.27,13.27,0,0,0,3,5c-.06-.07,0-.52,0-.62s.08-.53,0-.63a13.27,13.27,0,0,1-3-5,29,29,0,0,1-.88-5.78c0,.41,0,.83,0,1.25Z" transform="translate(-21.15 -0.38)"/><path class="cls-1" d="M44,21.13a8.41,8.41,0,0,0,.12,1.94" transform="translate(-21.15 -0.38)"/><path class="cls-4" d="M44,20.53c0,.66,0,1.34,0,2a9.15,9.15,0,0,0,.13,1.16,1.21,1.21,0,0,1,0-.19v-.88a1,1,0,0,0,0-.18c-.05-.3-.09-.6-.11-.9v0c0-.12,0-.24,0-.36,0-.39,0,1,0,.7a1.21,1.21,0,0,1,0-.19c0-.25,0-.51,0-.77v-.37s0-.12,0-.06Z" transform="translate(-21.15 -0.38)"/><path class="cls-1" d="M43.89,20.21a8.47,8.47,0,0,1,2.54,1.89" transform="translate(-21.15 -0.38)"/><path class="cls-4" d="M43.89,20.83a8.6,8.6,0,0,1,2.54,1.89,1.07,1.07,0,0,1,0-.18v-.88s0-.16,0-.19a8.6,8.6,0,0,0-2.54-1.89,1.07,1.07,0,0,1,0,.18v.89a1.08,1.08,0,0,0,0,.18Z" transform="translate(-21.15 -0.38)"/><path class="cls-1" d="M50.82,23.87a1.73,1.73,0,0,1,.63-1.24L54,19.93" transform="translate(-21.15 -0.38)"/><path class="cls-4" d="M50.82,23.27v1.14a1.57,1.57,0,0,1,.47-1c.28-.33.59-.63.88-1L54,20.56a.64.64,0,0,0,0-.19v-.88a1.21,1.21,0,0,1,0-.18l-2.17,2.3a4.54,4.54,0,0,0-.87,1,1.28,1.28,0,0,0-.15.58c0,.41,0,.83,0,1.24,0,.08,0-.1,0-.06V23.27Z" transform="translate(-21.15 -0.38)"/><path class="cls-1" d="M54,19.32a2.75,2.75,0,0,1,1.48,1.53,9.39,9.39,0,0,1,1.06,4.39,6.84,6.84,0,0,1-1.46,4.2" transform="translate(-21.15 -0.38)"/><path class="cls-4" d="M54,20a2.89,2.89,0,0,1,1.56,1.69,9.42,9.42,0,0,1,.85,2.58,6.09,6.09,0,0,1,.1.73c0,.5,0,.46,0-.14,0,.16,0,.32,0,.48a7.55,7.55,0,0,1-.22,1.17,6.6,6.6,0,0,1-1.2,2.36c-.07.08,0,.5,0,.62s.08.53,0,.63c1.35-1.68,1.52-3.7,1.46-5.77a9.26,9.26,0,0,0-.68-3.25c-.37-.91-.86-2-1.86-2.35.11,0-.14,1.2,0,1.25Z" transform="translate(-21.15 -0.38)"/><path class="cls-1" d="M50.14,22.77a2,2,0,0,0-1.68.34c-.51.31-1,.73-1.5,1s-1.1.34-1.64.56c-1.88.77-3,3-3.14,5.22-.09,1.19,0,2.58-.86,3.34" transform="translate(-21.15 -0.38)"/><path class="cls-4" d="M50.14,22.15a2.36,2.36,0,0,0-2,.53,6.88,6.88,0,0,1-1.85,1,6,6,0,0,0-1.73.72,5.24,5.24,0,0,0-1.24,1.29,7.34,7.34,0,0,0-1.15,3.45c-.1,1.15,0,2.53-.87,3.41-.07.07,0,.53,0,.63s.07.55,0,.62c.84-.83.78-2.11.85-3.2A7.54,7.54,0,0,1,43.34,27a4.92,4.92,0,0,1,2.89-2,6.12,6.12,0,0,0,1.86-1,2.43,2.43,0,0,1,2-.58c-.1,0,.12-1.22,0-1.25Z" transform="translate(-21.15 -0.38)"/><path class="cls-1" d="M40.23,35.25h.47" transform="translate(-21.15 -0.38)"/><path class="cls-4" d="M40.23,35.88h.47s0-1.25,0-1.25h-.47s0,1.25,0,1.25Z" transform="translate(-21.15 -0.38)"/><path class="cls-1" d="M40.7,35.4l.59-.14" transform="translate(-21.15 -0.38)"/><path class="cls-4" d="M40.7,36l.59-.13a1.28,1.28,0,0,0,0-.18v-.89s0-.18,0-.18l-.59.13v1.07a1.07,1.07,0,0,1,0,.18Z" transform="translate(-21.15 -0.38)"/><path class="cls-1" d="M47.24,31.57l2.3-1.65" transform="translate(-21.15 -0.38)"/><path class="cls-4" d="M47.24,32.2l2.3-1.66a1.07,1.07,0,0,0,0-.18c0-.15,0-.3,0-.44s0-.3,0-.44a1.2,1.2,0,0,1,0-.19L47.24,31a1.21,1.21,0,0,0,0,.18V32a1.34,1.34,0,0,1,0,.19Z" transform="translate(-21.15 -0.38)"/><path class="cls-1" d="M41.87,36.94c1.15,0,1.73,1.46,2.57,2.31a4.6,4.6,0,0,0,4.55.84c1.57-.42,3-1.24,4.61-1.54a5.69,5.69,0,0,0,1.29-.33A2.41,2.41,0,0,0,56,35.55c-.27-.95-1.11-1.8-.87-2.76" transform="translate(-21.15 -0.38)"/><path class="cls-4" d="M41.87,37.57c.87.06,1.38.79,1.86,1.43a4.41,4.41,0,0,0,1.88,1.65c2,.8,4.06-.14,5.92-.84a15.25,15.25,0,0,1,1.57-.53,13.89,13.89,0,0,0,1.58-.35,2.3,2.3,0,0,0,1.39-2,8.88,8.88,0,0,0,0-1.63c-.09-1-.87-1.75-1-2.75V33.8l0-.38c.07-.41-.07-.85,0-1.25a6.5,6.5,0,0,0,0,1.65,3.25,3.25,0,0,0,.43,1.27c.11.23.24.45.33.68a4.7,4.7,0,0,0,.19.6c0-.52,0-.61,0-.27a1.61,1.61,0,0,1-.09.29,2.48,2.48,0,0,1-.32.6,2,2,0,0,1-1,.72c-.48.16-1,.2-1.48.32a17.67,17.67,0,0,0-1.69.57c-1.82.7-3.86,1.58-5.8.8a4.41,4.41,0,0,1-1.88-1.65c-.48-.64-1-1.37-1.86-1.43,0,0,0,1.25,0,1.25Z" transform="translate(-21.15 -0.38)"/><path class="cls-1" d="M57,31c3.21,1.56,5.21,5.05,7,8.38a20.39,20.39,0,0,1,1.57,3.54,17,17,0,0,1-.33,9.22c-2.07,7.68-6.63,14.22-11.1,20.56" transform="translate(-21.15 -0.38)"/><path class="cls-4" d="M57,31.62c3.13,1.6,5,4.69,6.6,7.69a18.72,18.72,0,0,1,2.23,5.51,15.11,15.11,0,0,1-.57,6.47c-2,7.71-6.63,14.35-11.16,20.78-.2.28.2,1,0,1.25C59.15,66.09,64.92,58.09,65.89,49a16.37,16.37,0,0,0-1.48-9.32c-1.76-3.53-3.79-7.46-7.45-9.33.16.08-.17,1.16,0,1.25Z" transform="translate(-21.15 -0.38)"/><path class="cls-1" d="M50.86,42.78a18.92,18.92,0,0,0-5.13,9.49,60.32,60.32,0,0,0-1.31,11.09L44,70.68c-.13,2.3-.26,4.61-.2,6.92a42.13,42.13,0,0,0,5.4,19.65,4.42,4.42,0,0,0,.84,1.16c1.19,1.06,2.95.49,4.38-.14a2.44,2.44,0,0,0,1.44-1.13,1.93,1.93,0,0,0-1-2.32,4.46,4.46,0,0,0-2.56-.24" transform="translate(-21.15 -0.38)"/><path class="cls-4" d="M50.86,42.15c-3.86,3.65-5.33,9-5.94,14.07-.67,5.63-.85,11.4-1.06,17.07a51,51,0,0,0,.9,12.81,42.91,42.91,0,0,0,2.35,7.5c.51,1.2,1.07,2.38,1.69,3.52s1.08,2.18,2.33,2.44c1.68.36,4.82-.66,4.87-2.64a5.56,5.56,0,0,0,0-1.41c-.42-1.65-2.22-1.69-3.6-1.56-.05,0,0,1.25,0,1.25,1.59-.14,3.35,0,3.65,1.9V95.87c-.1,1.67-2.63,2.41-4,2.5-2,.12-2.79-1.71-3.58-3.26a41.89,41.89,0,0,1-3.86-11.34c-.95-5-.66-10.08-.37-15.17A111.33,111.33,0,0,1,45.3,54.94c.77-4.26,2.35-8.51,5.56-11.54.21-.2-.2-1,0-1.25Z" transform="translate(-21.15 -0.38)"/><path class="cls-1" d="M60.79,70.92c-1.88,2-2.3,5.15-2.28,8a72,72,0,0,0,1.28,11.25,3.78,3.78,0,0,0,.33,1.16c.78,1.43,3.17,1.24,3.58,2.85a6.73,6.73,0,0,1-4,1.42" transform="translate(-21.15 -0.38)"/><path class="cls-4" d="M60.79,70.29C58,73.46,58.33,78.45,58.64,82.4A72.06,72.06,0,0,0,59.83,91a2.77,2.77,0,0,0,1.85,2.15c.84.4,1.69.7,2,1.66V93.6a7.22,7.22,0,0,1-4,1.42s0,1.25,0,1.25a7.22,7.22,0,0,0,4-1.42,4,4,0,0,0,0-1.25c-.51-1.49-2.29-1.41-3.26-2.43a4.51,4.51,0,0,1-.8-2.51c-.21-1.25-.41-2.49-.58-3.74-.6-4.31-1.41-9.8,1.73-13.38.21-.23-.2-1,0-1.25Z" transform="translate(-21.15 -0.38)"/><path class="cls-1" d="M64.65,57.67a31.43,31.43,0,0,1,1.19,19.64,53.51,53.51,0,0,0-1.56,5.94A29.86,29.86,0,0,0,64,86.91c0,1.7.19,3.84,1.67,4.36" transform="translate(-21.15 -0.38)"/><path class="cls-4" d="M64.65,58.29A31.62,31.62,0,0,1,66.81,68a30.74,30.74,0,0,1-1.57,10.76A28.52,28.52,0,0,0,64,87c0,1.67-.12,4.11,1.68,4.91-.15-.07.16-1.18,0-1.25a3.13,3.13,0,0,1-1.6-2.71A16.25,16.25,0,0,1,64.66,82c.82-3.24,1.87-6.31,2.12-9.67A34.41,34.41,0,0,0,64.65,57c.14.36-.15.89,0,1.25Z" transform="translate(-21.15 -0.38)"/><path class="cls-1" d="M72.07,74.25a4.58,4.58,0,0,1,4.19-2.88A6.85,6.85,0,0,1,81,73.51,12.69,12.69,0,0,1,84.58,82a16,16,0,0,1-2.47,9.09,7,7,0,0,1-1.51,1.81c-.59.47-1.28.77-1.89,1.22S77.57,95.21,77,95.73a10,10,0,0,1-6.29,2.45A18.69,18.69,0,0,1,64,97.09" transform="translate(-21.15 -0.38)"/><path class="cls-4" d="M72.07,74.87c1.75-4.12,6.61-3.15,9.18-.46a12.29,12.29,0,0,1,2.71,12A13.36,13.36,0,0,1,81,91.91a16.84,16.84,0,0,1-2.32,1.61c-.79.59-1.41,1.38-2.19,2-3.63,2.83-8.4,2.26-12.5.95.11,0-.13,1.21,0,1.25,3.61,1.16,7.63,1.76,11.13-.07,1.61-.85,2.66-2.33,4.19-3.28a9,9,0,0,0,3.5-3.92c2.62-5.18,2.65-12.69-1.46-17.14a7,7,0,0,0-5.29-2.55,4.65,4.65,0,0,0-4,2.87c-.15.36.15.9,0,1.25Z" transform="translate(-21.15 -0.38)"/><path class="cls-1" d="M35.23,28.74C37.17,32.6,39.14,36.6,39.57,41c.48,5-1.1,10-3.29,14.39" transform="translate(-21.15 -0.38)"/><path class="cls-4" d="M35.23,29.37c1.9,3.8,3.84,7.72,4.31,12C40,46,38.26,50.7,36.28,54.75c-.17.34.16.91,0,1.25a30.13,30.13,0,0,0,3.38-13.52c0-5.2-2.15-9.8-4.43-14.36.17.33-.17.91,0,1.25Z" transform="translate(-21.15 -0.38)"/><path class="cls-1" d="M31.3,81.12a1.21,1.21,0,0,0,.66,1,3.76,3.76,0,0,0,1.13.33,13.65,13.65,0,0,1,2.08.58,6.31,6.31,0,0,1,2,1,5.19,5.19,0,0,1,1.52,4.32,10.39,10.39,0,0,1-1.61,4.45" transform="translate(-21.15 -0.38)"/><path class="cls-4" d="M31.3,81.74a1.35,1.35,0,0,0,1,1.15c.69.23,1.43.3,2.13.52a6.09,6.09,0,0,1,3.32,1.9,4.69,4.69,0,0,1,.75,1.56c.08.29.11.59.17.88.12.53.09-.51,0,0,0,.19,0,.38-.06.58a11.15,11.15,0,0,1-1.54,3.84c-.18.32.18,1,0,1.25A10.31,10.31,0,0,0,38.72,89a9.39,9.39,0,0,0-.28-3.62,4.59,4.59,0,0,0-3.09-2.91,17.88,17.88,0,0,0-2.45-.69c-.74-.15-1.52-.41-1.6-1.28,0,.41,0,.84,0,1.25Z" transform="translate(-21.15 -0.38)"/><path class="cls-1" d="M37,93.06a8.74,8.74,0,0,1,1.37-2.6" transform="translate(-21.15 -0.38)"/><path class="cls-4" d="M37,93.69a8.93,8.93,0,0,1,1.37-2.61.57.57,0,0,0,0-.18V90a1.28,1.28,0,0,1,0-.19A8.93,8.93,0,0,0,37,92.44a.55.55,0,0,0,0,.18v.88a1.21,1.21,0,0,1,0,.19Z" transform="translate(-21.15 -0.38)"/><path class="cls-1" d="M37.16,92.39a1.81,1.81,0,0,0-.54.9c.22.16.56-.12.48-.39a2.54,2.54,0,0,1-1.35,1.45" transform="translate(-21.15 -0.38)"/><path class="cls-4" d="M37.16,91.76a1.85,1.85,0,0,0-.54.91,1.08,1.08,0,0,0,0,.18v.89s0,.17,0,.18a.34.34,0,0,0,.49-.28,4.68,4.68,0,0,0,0-.65c0-.21,0-.43,0-.64a.07.07,0,0,0,0,0s0,0,0,0a.36.36,0,0,0,0,.09l-.09.2a2.51,2.51,0,0,1-1.21,1.13,1.42,1.42,0,0,0,0,.19v.88s0,.18,0,.18a2.36,2.36,0,0,0,.84-.6A3.25,3.25,0,0,0,36.9,94l.12-.24.06-.13,0-.06V92.37c0,.22-.27.44-.49.3v1.25a1.85,1.85,0,0,1,.54-.91,1.07,1.07,0,0,0,0-.18c0-.15,0-.29,0-.44s0-.29,0-.44,0-.17,0-.19Z" transform="translate(-21.15 -0.38)"/></svg>